<?xml version="1.0" encoding="utf-8"?>
<!-- Generator: Adobe Illustrator 22.1.0, SVG Export Plug-In . SVG Version: 6.00 Build 0)  -->
<svg version="1.1" id="Layer_1" xmlns="http://www.w3.org/2000/svg" xmlns:xlink="http://www.w3.org/1999/xlink" x="0px" y="0px"
	 viewBox="0 0 200 200" style="enable-background:new 0 0 200 200;" xml:space="preserve">
<style type="text/css">
	.st0{fill:#FFFFFF;}
</style>
<path class="st0" d="M71.2,183.5c-0.3,0-0.5-0.1-0.8-0.2c-10.2-7.1-22-18.8-33.2-32.9c-10.1-12.8-18.3-25.7-21.9-34.7
	c-0.1-0.2-0.1-0.4-0.1-0.6c3-28.9,12.3-56.7,27.4-82.6c0.2-0.3,0.4-0.5,0.7-0.6c10.5-3.5,32.8-9.4,42.9-11l0,0c0.1,0,0.3,0,0.4-0.1
	c0.2,0,0.6-0.1,1.1-0.1c0.9-0.1,2.3-0.3,4-0.5c3.1-0.4,7.8-0.9,13.1-1.4c13.6-1.2,23.8-1.6,30.2-1.2c0.3,0,0.6,0.1,0.8,0.3
	c8.2,7.1,21.8,26.7,30.2,41.5c0.1,0.1,0.1,0.3,0.2,0.4c0.6,1.2,3.3,5.9,5.8,10.4c4.8,8.5,10.8,19,12.2,22.1c0.1,0.2,0.1,0.4,0.1,0.6
	c-0.3,6.6-4.3,19.7-10.5,34.2c-6.4,15-13.6,28.2-19.3,35.3c-0.1,0.1-0.3,0.3-0.4,0.4C132,174.1,102.6,181.4,71.2,183.5
	C71.3,183.5,71.3,183.5,71.2,183.5z M17.9,115c7.4,18,32.8,51,53.7,65.8c30.6-2.1,59.4-9.3,81.1-20.2c12.4-15.6,28.1-54.2,29-67.4
	c-1.6-3.4-7.5-13.9-11.9-21.6c-1.7-2.9-3.2-5.7-4.3-7.7c-0.6-1.1-1-1.8-1.3-2.4c-0.2-0.4-0.4-0.7-0.5-1.1
	c-8.2-14.4-21.2-33.2-29.1-40.3c-15.2-1-46.9,3.1-47.8,3.2c-9.9,1.6-31.5,7.3-42,10.8C29.9,59.6,20.9,86.8,17.9,115z"/>
<path class="st0" d="M120.5,60.9c-0.1-4.8-2.1-9.2-5.5-12.5l4.2-7.3c0.2-0.3,0.1-0.6-0.2-0.8s-0.6-0.1-0.8,0.2l-4.1,7.1
	c-3.5-3.2-8.3-5.3-13.6-5.8h-5c-5.3,0.5-10.1,2.7-13.6,5.8l-4.1-7.1c-0.2-0.3-0.5-0.4-0.8-0.2c-0.3,0.2-0.4,0.5-0.2,0.8l4.2,7.3
	c-3.4,3.4-5.4,7.7-5.5,12.5H120.5z M105.5,52c0-1.4,1.1-2.5,2.6-2.5c1.4,0,2.6,1.1,2.6,2.5v0c0,1.4-1.1,2.5-2.6,2.5
	C106.7,54.5,105.5,53.4,105.5,52L105.5,52z M86.3,52c0-1.4,1.1-2.5,2.6-2.5c1.4,0,2.6,1.1,2.6,2.5v0c0,1.4-1.1,2.5-2.6,2.5
	C87.5,54.5,86.3,53.4,86.3,52L86.3,52z M67.5,65.9c-2.7,0-5,2.2-5,5v21.3c0,2.7,2.2,5,5,5c2.7,0,5-2.2,5-5V70.9
	C72.5,68.1,70.3,65.9,67.5,65.9z M75.5,63L75.5,63c0,0.2,0,0.4,0,0.6v32.3c0,3.5,2.8,6.3,6.2,6.3h0.2V115c0,2.7,2.2,5,5,5
	c2.7,0,5-2.2,5-5v-12.8h12.5V115c0,2.7,2.2,5,5,5c2.7,0,5-2.2,5-5v-12.8h0.2c3.4,0,6.2-2.8,6.2-6.3V63.6c0-0.2,0-0.4,0-0.6H75.5z
	 M128.7,65.9c-2.7,0-5,2.2-5,5v21.3c0,2.7,2.2,5,5,5c2.7,0,5-2.2,5-5V70.9C133.7,68.1,131.5,65.9,128.7,65.9z"/>
<path class="st0" d="M97.9,138.2c0.3,0,0.7-0.2,1,0.1c0,0.3,0,0.7,0,1c0,4.3,0,8.7,0,13c-0.3,0.1-0.7,0.1-1,0c0-0.7,0-1.4,0-2.2
	c-0.8,1.1-2,1.9-3.3,2.2c-1.6,0.4-3.4,0.1-4.7-1c-0.9-0.6-1.5-1.5-1.9-2.5c-0.6-1.6-0.4-3.5,0.5-5c0.8-1.2,2-2.1,3.4-2.5
	c1.5-0.3,3.1-0.1,4.4,0.7c0.6,0.4,1.1,0.9,1.6,1.5C97.8,141.9,97.9,140,97.9,138.2 M92.2,142.5c-2.2,0.5-3.8,2.8-3.5,5
	c0.2,1.6,1.3,2.9,2.7,3.6c1.2,0.5,2.6,0.6,3.7-0.1c1.9-0.8,3-2.9,2.7-4.9c-0.2-1.4-1.1-2.6-2.3-3.3
	C94.4,142.4,93.2,142.3,92.2,142.5L92.2,142.5z M132.1,138.3c0.3-0.3,0.7-0.1,1,0c0,4.7,0,9.4,0,14.1c-0.3,0.1-0.7,0.1-1,0
	c0-0.7,0-1.4,0-2.1c-1,1.3-2.5,2.3-4.2,2.4c-1.1,0.1-2.2-0.2-3.2-0.7c-1.4-0.8-2.5-2.2-2.8-3.8c-0.3-1.4,0-2.9,0.7-4.1
	c0.8-1.3,2.2-2.3,3.7-2.6c1.5-0.3,3.1,0,4.3,0.9c0.6,0.4,1,0.9,1.4,1.4C132.1,141.9,132,140.1,132.1,138.3 M126.4,142.5
	c-1.2,0.3-2.3,1.1-2.9,2.3c-0.5,0.9-0.7,2.1-0.5,3.1c0.3,1.5,1.4,2.8,2.9,3.4c0.9,0.3,2,0.4,2.9,0.1c1-0.4,1.9-1,2.4-1.8
	c0.7-1,1-2.4,0.7-3.6c-0.3-1.4-1.3-2.6-2.6-3.1C128.4,142.4,127.3,142.3,126.4,142.5L126.4,142.5z M119.2,138.3
	c0.6-0.2,1.1,0.6,0.8,1c-0.2,0.4-0.9,0.5-1.2,0.1C118.4,139.1,118.7,138.4,119.2,138.3L119.2,138.3z M67.6,141.4
	c1.2-0.2,2.5-0.1,3.6,0.5c0.8,0.4,1.5,1.1,2.1,1.8c0-0.7,0-1.5,0-2.2c0.3,0,0.6,0,0.9,0c0,3.6,0,7.2,0,10.9c-0.3,0.1-0.7,0.1-1,0
	c0-0.7,0-1.4,0-2.1c-0.9,1.1-2.1,2-3.5,2.3c-1.2,0.3-2.6,0.1-3.7-0.5c-1.6-0.8-2.8-2.4-3.1-4.2c-0.1-1,0-2.1,0.4-3.1
	C64.2,143,65.8,141.7,67.6,141.4 M67.6,142.5c-1.6,0.3-3,1.6-3.4,3.2c-0.6,1.8,0.2,4,1.8,5c1.1,0.7,2.5,1,3.8,0.7
	c1.5-0.5,2.7-1.6,3.1-3.1c0.6-1.8-0.1-3.9-1.7-5C70.3,142.5,68.9,142.2,67.6,142.5L67.6,142.5z M78.2,142.5c1.8-1.5,4.6-1.5,6.3,0
	c1.2,0.9,1.9,2.4,1.9,3.9c0,2,0,4,0,6c-0.3,0.1-0.7,0.1-1,0c0-2.1,0-4.2,0-6.3c-0.1-2-2-3.8-4-3.7c-2,0-3.9,1.8-3.9,3.8
	c0,2.1,0,4.1,0,6.2c-0.3,0.1-0.7,0.1-1,0c0-2,0-3.9,0-5.9C76.3,144.9,77,143.4,78.2,142.5L78.2,142.5z M100.7,146.1
	c0-2.6,2.4-4.9,5-4.7c0,0.3,0.1,0.6,0,0.9c-0.2,0.2-0.6,0.1-0.9,0.2c-1.2,0.2-2.2,1.1-2.7,2.1c-0.5,1-0.4,2.1-0.4,3.2
	c0,1.5,0,3,0,4.5c-0.3,0.2-0.7,0.1-1,0.1C100.7,150.3,100.7,148.2,100.7,146.1L100.7,146.1z M110,141.4c1.3-0.2,2.8-0.1,4,0.6
	c1.4,0.8,2.5,2.3,2.8,3.9c0.1,1.1,0.1,2.2-0.3,3.2c-0.8,1.9-2.6,3.2-4.6,3.5c-1.3,0.1-2.7-0.2-3.8-1c-1.2-0.8-2-2.1-2.3-3.6
	c-0.3-1.4,0-2.8,0.7-4C107.2,142.7,108.5,141.7,110,141.4 M110.2,142.5c-2.2,0.5-3.9,2.8-3.5,5.1c0.2,1.2,0.8,2.3,1.7,3
	c1.1,0.9,2.6,1.2,4,0.8c0.8-0.3,1.7-0.7,2.2-1.4c0.8-0.9,1.2-2.1,1.2-3.3c-0.1-1.6-1-3.1-2.4-3.8
	C112.4,142.4,111.3,142.3,110.2,142.5L110.2,142.5z M118.8,141.8c0.3-0.3,0.8-0.2,1.1-0.1c0,3.4,0,6.8,0,10.2c0,0.5-0.6,0.2-0.9,0.3
	c-0.1,0-0.2-0.1-0.2-0.2C118.8,148.6,118.7,145.2,118.8,141.8z"/>
</svg>
