<?xml version="1.0" encoding="utf-8"?>
<!-- Generator: Adobe Illustrator 22.1.0, SVG Export Plug-In . SVG Version: 6.00 Build 0)  -->
<svg version="1.1" id="Layer_1" xmlns="http://www.w3.org/2000/svg" xmlns:xlink="http://www.w3.org/1999/xlink" x="0px" y="0px"
	 viewBox="0 0 200 200" style="enable-background:new 0 0 200 200;" xml:space="preserve">
<style type="text/css">
	.st0{fill:#FFFFFF;}
</style>
<path class="st0" d="M71.7,183.5c-0.3,0-0.5-0.1-0.8-0.2c-10.2-7.1-22-18.8-33.2-32.9c-10.1-12.8-18.3-25.7-21.9-34.7
	c-0.1-0.2-0.1-0.4-0.1-0.6c3-28.9,12.3-56.7,27.4-82.6c0.2-0.3,0.4-0.5,0.7-0.6c10.5-3.5,32.8-9.4,42.9-11l0,0c0.1,0,0.3,0,0.4-0.1
	c0.2,0,0.6-0.1,1.1-0.1c0.9-0.1,2.3-0.3,4-0.5c3.1-0.4,7.8-0.9,13.1-1.4c13.6-1.2,23.8-1.6,30.2-1.2c0.3,0,0.6,0.1,0.8,0.3
	c8.2,7.1,21.8,26.7,30.2,41.5c0.1,0.1,0.1,0.3,0.2,0.4c0.6,1.2,3.3,5.9,5.8,10.4c4.8,8.5,10.8,19,12.2,22.1c0.1,0.2,0.1,0.4,0.1,0.6
	c-0.3,6.6-4.3,19.7-10.5,34.2c-6.4,15-13.6,28.2-19.3,35.3c-0.1,0.1-0.3,0.3-0.4,0.4C132.4,174.1,103,181.4,71.7,183.5
	C71.7,183.5,71.7,183.5,71.7,183.5z M18.3,115c7.4,18,32.8,51,53.7,65.8c30.6-2.1,59.4-9.3,81.1-20.2c12.4-15.6,28.1-54.2,29-67.4
	c-1.6-3.4-7.5-13.9-11.9-21.6c-1.7-2.9-3.2-5.7-4.3-7.7c-0.6-1.1-1-1.8-1.3-2.4c-0.2-0.4-0.4-0.7-0.5-1.1
	c-8.2-14.4-21.2-33.2-29.1-40.3c-15.2-1-46.9,3.1-47.8,3.2c-9.9,1.6-31.5,7.3-42,10.8C30.3,59.6,21.3,86.8,18.3,115z"/>
<path class="st0" d="M119.9,82.6c-0.1-10.1,8.2-15,8.6-15.2c-4.7-6.9-12-7.8-14.6-7.9c-6.1-0.6-12.1,3.7-15.2,3.7
	c-3.2,0-8-3.6-13.2-3.5c-6.7,0.1-12.9,4-16.4,10c-7.1,12.3-1.8,30.3,5,40.2c3.4,4.9,7.4,10.3,12.6,10.1c5.1-0.2,7-3.2,13.1-3.2
	c6.1,0,7.9,3.2,13.1,3.1c5.5-0.1,8.9-4.9,12.2-9.8c3.9-5.6,5.5-11,5.6-11.3C130.5,98.7,120,94.7,119.9,82.6L119.9,82.6z M109.9,53
	c2.7-3.4,4.6-8.1,4.1-12.8c-4,0.2-8.9,2.7-11.7,6.1c-2.5,2.9-4.8,7.8-4.2,12.3C102.5,59,107.1,56.4,109.9,53L109.9,53z"/>
<g>
	<path class="st0" d="M84.6,136.1c-0.4,0-0.7,0.3-0.7,0.8c0,0.4,0.3,0.8,0.7,0.8c0.4,0,0.7-0.3,0.7-0.8
		C85.3,136.4,85,136.1,84.6,136.1z"/>
	<path class="st0" d="M84.9,141h-0.6c-0.1,0-0.2,0.1-0.2,0.2v14.1c0,0.1,0.1,0.2,0.2,0.2h0.6c0.1,0,0.2-0.1,0.2-0.2v-14.1
		C85,141.1,85,141,84.9,141z"/>
	<path class="st0" d="M96.1,135C96.1,135,96.1,135,96.1,135c-5.1,0-8.4,4.2-8.4,10.5c0,6.1,3.3,10.2,8.1,10.2
		c3.9,0,8.4-2.7,8.4-10.5c0-3.1-0.8-5.7-2.3-7.5C100.4,135.9,98.4,135,96.1,135z M103.3,145.3c0,5.7-3,9.4-7.4,9.4
		c-4.4,0-7.2-3.7-7.2-9.4c0-5.7,3-9.3,7.6-9.3C101.4,136,103.3,140.8,103.3,145.3z"/>
	<path class="st0" d="M111.6,144.5l-0.2-0.1c-2.4-1.1-4.1-2-4.1-4.3c0-1.6,1.2-4.1,4.5-4.1c1.5,0,2.8,0.4,3.2,0.8c0,0,0.1,0,0.1,0
		c0,0,0.1,0,0.1-0.1l0.2-0.5c0-0.1,0-0.2-0.1-0.2c-0.6-0.4-1.9-0.9-3.6-0.9c-3.2,0-5.6,2.2-5.6,5.1c0,2.9,2.3,4,4.8,5.1
		c2.6,1.1,4.3,2.3,4.3,5c0,2.8-2.5,4.5-5,4.5c-1.5,0-3.1-0.6-4-1.2c0,0-0.1,0-0.1,0c0,0-0.1,0-0.1,0.1l-0.3,0.6c0,0.1,0,0.2,0.1,0.2
		c0.9,0.7,2.8,1.2,4.3,1.2c3.6,0,6-2.2,6-5.5C116.1,147.3,114.5,146,111.6,144.5z"/>
</g>
</svg>
