<svg width="140" height="140" xmlns="http://www.w3.org/2000/svg">
 <metadata>Aprobado2021-03-22T11:46:19-03:00xmp.iid:1c1d455a-425a-4f59-9f15-c2b61b876f0exmp.did:1c1d455a-425a-4f59-9f15-c2b61b876f0exmp.did:1c1d455a-425a-4f59-9f15-c2b61b876f0esavedxmp.iid:1c1d455a-425a-4f59-9f15-c2b61b876f0e2021-03-22T11:46:19-03:00Adobe Bridge CC (Macintosh)/metadata</metadata>

 <g>
  <title>Layer 1</title>
  <g id="svg_1">
   <path id="svg_2" d="m114.75,5.5l-89.5,0c-10.9,0 -19.7,8.9 -19.7,19.8l0,89.5c0,10.9 8.9,19.7 19.7,19.7l89.5,0c10.9,0 19.7,-8.9 19.7,-19.7l0,-89.5c0,-10.9 -8.8,-19.8 -19.7,-19.8zm-89.5,10.6l89.5,0c5.1,0 9.2,4.1 9.2,9.2l0,89.5c0,0.5 -0.1,1 -0.1,1.5l-4.2,-22.7c0,-2.7 -2.2,-4.9 -4.9,-4.9l-26.4,0c-2.7,0 -4.9,2.2 -4.9,4.7l-5.9,30.6l-19.4,0l0,-35.9c0,-2.7 -2.2,-5 -5,-5l-3,0l0,-5c0,-1.5 1.2,-2.8 2.8,-2.8l36.3,0l-2.9,9.2c-0.1,0.4 -0.1,0.9 0.2,1.2c0.3,0.3 0.7,0.5 1.1,0.5l28.3,0c0.4,0 0.8,-0.2 1.1,-0.5c0.3,-0.3 0.3,-0.8 0.2,-1.2l-4.5,-15.1c-0.1,-0.5 -0.3,-1.1 -0.5,-1.7c0,-0.1 -0.1,-0.2 -0.2,-0.3c-1.8,-4.5 -5.8,-7.3 -10.1,-7.3c-4.4,0 -8.4,3 -10.2,7.7c-0.2,0.5 -0.3,0.9 -0.4,1.4l-1.1,3.5l-37.3,0c-3,0 -5.5,2.5 -5.5,5.5l0,5l-29.7,0c-0.6,0 -1.1,0.1 -1.7,0.3l0,-58.2c0,-5.1 4.1,-9.2 9.2,-9.2zm68.6,53.8c0.1,-0.4 0.2,-0.8 0.4,-1.2c1.4,-3.6 4.4,-5.9 7.7,-5.9c3.3,0 6.3,2.3 7.7,5.9c0,0 0,0.1 0.1,0.1c0,0 0,0.1 0,0.1c0.2,0.4 0.3,0.8 0.4,1.3l4,13.4l-24.7,0l4.4,-13.7zm-77.8,44.9l0,-28.3c0.4,-0.4 1,-0.7 1.7,-0.7l30.1,0l2.1,0l3.2,0c1.3,0 2.3,1 2.3,2.3l0,35.9l-30.2,0c-5.1,0 -9.2,-4.1 -9.2,-9.2zm98.7,9.2l-34.5,0l5.8,-30.3c0,-1.2 1,-2.2 2.2,-2.2l26.4,0c1.2,0 2.2,1 2.3,2.5l4.9,26.5c0,0.1 0,0.1 0.1,0.2c-1.7,1.9 -4.3,3.3 -7.2,3.3z" fill="#ffffff"/>
   <path id="svg_3" d="m35.55,81.4c7.2,0 13,-5.8 13,-13c0,-7.2 -5.8,-13 -13,-13s-13,5.8 -13,13c0,7.2 5.8,13 13,13zm0,-23.4c5.7,0 10.3,4.6 10.3,10.3c0,5.7 -4.6,10.3 -10.3,10.3c-5.7,0 -10.3,-4.6 -10.3,-10.3c0,-5.6 4.6,-10.3 10.3,-10.3z" fill="#ffffff"/>
   <path id="svg_4" d="m73.15,70.3c8,0 14.6,-6.5 14.6,-14.6c0,-8 -6.5,-14.6 -14.6,-14.6c-8,0 -14.6,6.5 -14.6,14.6c0.1,8.1 6.6,14.6 14.6,14.6zm0,-26.5c6.6,0 11.9,5.3 11.9,11.9c0,6.6 -5.3,11.9 -11.9,11.9s-11.9,-5.3 -11.9,-11.9c0,-6.5 5.4,-11.9 11.9,-11.9z" fill="#ffffff"/>
  </g>
 </g>
</svg>