<?xml version="1.0" encoding="utf-8"?>
<!-- Generator: Adobe Illustrator 18.0.0, SVG Export Plug-In . SVG Version: 6.00 Build 0)  -->
<!DOCTYPE svg PUBLIC "-//W3C//DTD SVG 1.1//EN" "http://www.w3.org/Graphics/SVG/1.1/DTD/svg11.dtd">
<svg version="1.1" id="Capa_1" xmlns="http://www.w3.org/2000/svg" xmlns:xlink="http://www.w3.org/1999/xlink" x="0px" y="0px"
	 viewBox="0 0 800 800" enable-background="new 0 0 800 800" xml:space="preserve">
<metadata><?xpacket begin="﻿" id="W5M0MpCehiHzreSzNTczkc9d"?>
<x:xmpmeta xmlns:x="adobe:ns:meta/" x:xmptk="Adobe XMP Core 5.6-c111 79.158366, 2015/09/25-01:12:00        ">
   <rdf:RDF xmlns:rdf="http://www.w3.org/1999/02/22-rdf-syntax-ns#">
      <rdf:Description rdf:about=""
            xmlns:xmp="http://ns.adobe.com/xap/1.0/"
            xmlns:xmpMM="http://ns.adobe.com/xap/1.0/mm/"
            xmlns:stEvt="http://ns.adobe.com/xap/1.0/sType/ResourceEvent#">
         <xmp:Label>Aprobado</xmp:Label>
         <xmp:MetadataDate>2021-03-22T11:46:19-03:00</xmp:MetadataDate>
         <xmpMM:InstanceID>xmp.iid:333e3b62-b582-4bcc-9fe5-d1e1a5f8aa7f</xmpMM:InstanceID>
         <xmpMM:DocumentID>xmp.did:333e3b62-b582-4bcc-9fe5-d1e1a5f8aa7f</xmpMM:DocumentID>
         <xmpMM:OriginalDocumentID>xmp.did:333e3b62-b582-4bcc-9fe5-d1e1a5f8aa7f</xmpMM:OriginalDocumentID>
         <xmpMM:History>
            <rdf:Seq>
               <rdf:li>
                  <rdf:Description>
                     <stEvt:action>saved</stEvt:action>
                     <stEvt:instanceID>xmp.iid:333e3b62-b582-4bcc-9fe5-d1e1a5f8aa7f</stEvt:instanceID>
                     <stEvt:when>2021-03-22T11:46:19-03:00</stEvt:when>
                     <stEvt:softwareAgent>Adobe Bridge CC (Macintosh)</stEvt:softwareAgent>
                     <stEvt:changed>/metadata</stEvt:changed>
                  </rdf:Description>
               </rdf:li>
            </rdf:Seq>
         </xmpMM:History>
      </rdf:Description>
   </rdf:RDF>
</x:xmpmeta>
                                                                                                    
                                                                                                    
                                                                                                    
                                                                                                    
                                                                                                    
                                                                                                    
                                                                                                    
                                                                                                    
                                                                                                    
                                                                                                    
                                                                                                    
                                                                                                    
                                                                                                    
                                                                                                    
                                                                                                    
                                                                                                    
                                                                                                    
                                                                                                    
                                                                                                    
                                                                                                    
                           
<?xpacket end="w"?></metadata>
<g>
	<g>
		<path fill="#009AAA" d="M597.7,514c-63.1,109.2-202.7,146.7-312,83.6c-109.2-63.1-146.7-202.7-83.6-312
			c63.1-109.2,202.7-146.7,311.9-83.6C623.3,265.1,660.8,404.8,597.7,514z"/>
		<path fill="#009AAA" d="M400.1,171.4c38.7,0,78,9.9,114,30.6c109.2,63.1,146.7,202.7,83.6,312c-42.3,73.3-119.1,114.2-198,114.2
			c-38.7,0-78-9.9-114-30.6c-109.2-63.1-146.7-202.7-83.6-312C244.4,212.4,321.2,171.4,400.1,171.4 M400.1,124
			C400.1,124,400.1,124,400.1,124c-47.6,0-94.6,12.4-136.1,35.8c-42.7,24.1-78.4,59.5-103,102.2c-18.6,32.2-30.3,67.2-34.9,103.8
			c-4.4,35.4-1.9,70.9,7.4,105.5c9.3,34.6,24.9,66.5,46.4,95c22.3,29.5,49.9,53.9,82.1,72.5c41.9,24.2,89.5,37,137.7,37
			c47.6,0,94.6-12.4,136.1-35.8c42.7-24.1,78.4-59.5,103-102.2c18.6-32.2,30.3-67.2,34.9-103.8c4.4-35.4,1.9-70.9-7.4-105.5
			c-9.3-34.6-24.9-66.5-46.4-95C597.7,204,570,179.6,537.8,161C495.9,136.8,448.3,124,400.1,124L400.1,124z"/>
	</g>
	<path fill="#FFFFFF" d="M400.1,171.4c38.7,0,78,9.9,114,30.6c109.2,63.1,146.7,202.7,83.6,311.9c-42.3,73.3-119.1,114.2-198,114.2
		c-38.7,0-78-9.9-114-30.6c-109.2-63.1-146.7-202.7-83.6-312C244.4,212.4,321.2,171.4,400.1,171.4 M400.1,159.6L400.1,159.6
		c-41.5,0-82.5,10.8-118.6,31.2c-37.2,21-68.2,51.8-89.7,89c-16.2,28.1-26.4,58.5-30.4,90.4c-3.8,30.8-1.7,61.7,6.4,91.9
		c8.1,30.1,21.7,58,40.4,82.8c19.4,25.7,43.5,46.9,71.5,63.1c36.5,21.1,78,32.2,119.9,32.2c41.5,0,82.5-10.8,118.6-31.2
		c37.2-21,68.2-51.8,89.7-89c16.2-28.1,26.4-58.5,30.4-90.4c3.8-30.8,1.7-61.7-6.4-91.9c-8.1-30.1-21.7-58-40.4-82.8
		c-19.4-25.7-43.5-46.9-71.5-63.1C483.5,170.7,442.1,159.6,400.1,159.6L400.1,159.6z"/>
	<path fill="#FFFFFF" d="M395.7,413.7c-1,0-2-0.3-3-0.8c-1.8-1.1-3-3-3-5.1l0-235.3c0-3.3,2.7-5.9,5.9-5.9s5.9,2.7,5.9,5.9l0,225
		L596.4,285c2.8-1.6,6.5-0.7,8.1,2.2c1.6,2.8,0.7,6.5-2.2,8.1L398.6,413C397.7,413.5,396.7,413.7,395.7,413.7z"/>
	<path fill="#FFFFFF" d="M599.3,525.3c-1,0-1.9-0.2-2.8-0.7l-202-110c-2.9-1.6-3.9-5.2-2.4-8c1.6-2.9,5.2-3.9,8-2.4l202,110
		c2.9,1.6,3.9,5.2,2.4,8C603.4,524.1,601.4,525.3,599.3,525.3z"/>
</g>
</svg>
